<?xml version="1.0" standalone="no"?>
<!DOCTYPE svg PUBLIC "-//W3C//DTD SVG 20010904//EN"
 "http://www.w3.org/TR/2001/REC-SVG-20010904/DTD/svg10.dtd">
<svg version="1.0" xmlns="http://www.w3.org/2000/svg"
 width="512.000000pt" height="512.000000pt" viewBox="0 0 512.000000 512.000000"
 preserveAspectRatio="xMidYMid meet">
<metadata>
Created by potrace 1.14, written by Peter Selinger 2001-2017
</metadata>
<g transform="translate(0.000000,512.000000) scale(0.100000,-0.100000)"
fill="#000000" stroke="none">
<path d="M0 2560 l0 -2560 2560 0 2560 0 0 2560 0 2560 -2560 0 -2560 0 0
-2560z m4445 2146 c54 -23 75 -67 75 -156 0 -89 -21 -133 -75 -156 -52 -21
-3718 -21 -3770 0 -54 23 -75 67 -75 156 0 88 21 133 73 155 49 22 3721 22
3772 1z m-1582 -956 c316 -62 584 -206 818 -439 238 -238 384 -515 445 -846
26 -139 26 -411 0 -550 -62 -332 -207 -607 -445 -846 -236 -235 -499 -376
-824 -441 -161 -32 -433 -32 -594 0 -325 65 -588 206 -824 441 -238 238 -384
515 -445 846 -26 139 -26 411 0 550 61 331 207 608 445 846 266 266 595 423
966 463 96 10 353 -3 458 -24z"/>
<path d="M2715 3489 c-439 -59 -755 -319 -829 -681 -20 -99 -21 -266 -1 -343
35 -132 128 -255 261 -344 41 -28 156 -90 257 -140 188 -93 266 -143 303 -198
58 -86 28 -243 -61 -321 -83 -73 -180 -102 -345 -102 -186 0 -315 38 -494 145
-50 30 -101 55 -113 55 -48 0 -94 -95 -128 -262 -19 -97 -19 -161 0 -198 39
-75 196 -147 419 -192 145 -30 441 -32 581 -5 516 100 822 422 828 872 3 177
-28 272 -126 396 -72 90 -163 151 -412 273 -304 150 -345 187 -345 303 0 195
198 316 465 284 117 -14 204 -41 330 -102 136 -66 152 -65 190 11 35 69 64
182 72 278 l6 83 -45 43 c-53 50 -160 93 -315 126 -114 24 -387 35 -498 19z"/>
</g>
</svg>
